<mxfile host="app.diagrams.net" agent="Mozilla/5.0 (Windows NT 10.0; Win64; x64) AppleWebKit/537.36 (KHTML, like Gecko) Chrome/138.0.0.0 Safari/537.36" version="28.0.7">
  <diagram name="Página-1" id="j1BeHNS8yZHzJAnnpMSL">
    <mxGraphModel dx="1426" dy="811" grid="1" gridSize="10" guides="0" tooltips="1" connect="1" arrows="1" fold="1" page="1" pageScale="1" pageWidth="3300" pageHeight="4681" math="0" shadow="0">
      <root>
        <mxCell id="0" />
        <mxCell id="1" parent="0" />
        <mxCell id="NdFDXdxjGD2_85TAVoyD-1" value="Exclusão de perfil" style="shape=umlFrame;whiteSpace=wrap;html=1;pointerEvents=0;" vertex="1" parent="1">
          <mxGeometry x="320" y="350" width="780" height="410" as="geometry" />
        </mxCell>
        <mxCell id="NdFDXdxjGD2_85TAVoyD-2" value="" style="shape=umlLifeline;perimeter=lifelinePerimeter;whiteSpace=wrap;html=1;container=1;dropTarget=0;collapsible=0;recursiveResize=0;outlineConnect=0;portConstraint=eastwest;newEdgeStyle={&quot;curved&quot;:0,&quot;rounded&quot;:0};participant=umlActor;" vertex="1" parent="1">
          <mxGeometry x="420" y="390" width="20" height="330" as="geometry" />
        </mxCell>
        <mxCell id="NdFDXdxjGD2_85TAVoyD-3" value="" style="html=1;points=[[0,0,0,0,5],[0,1,0,0,-5],[1,0,0,0,5],[1,1,0,0,-5]];perimeter=orthogonalPerimeter;outlineConnect=0;targetShapes=umlLifeline;portConstraint=eastwest;newEdgeStyle={&quot;curved&quot;:0,&quot;rounded&quot;:0};" vertex="1" parent="NdFDXdxjGD2_85TAVoyD-2">
          <mxGeometry x="5" y="80" width="10" height="230" as="geometry" />
        </mxCell>
        <mxCell id="NdFDXdxjGD2_85TAVoyD-4" value="Front End" style="shape=umlLifeline;perimeter=lifelinePerimeter;whiteSpace=wrap;html=1;container=1;dropTarget=0;collapsible=0;recursiveResize=0;outlineConnect=0;portConstraint=eastwest;newEdgeStyle={&quot;curved&quot;:0,&quot;rounded&quot;:0};" vertex="1" parent="1">
          <mxGeometry x="660" y="390" width="100" height="330" as="geometry" />
        </mxCell>
        <mxCell id="NdFDXdxjGD2_85TAVoyD-5" value="" style="html=1;points=[[0,0,0,0,5],[0,1,0,0,-5],[1,0,0,0,5],[1,1,0,0,-5]];perimeter=orthogonalPerimeter;outlineConnect=0;targetShapes=umlLifeline;portConstraint=eastwest;newEdgeStyle={&quot;curved&quot;:0,&quot;rounded&quot;:0};" vertex="1" parent="NdFDXdxjGD2_85TAVoyD-4">
          <mxGeometry x="45" y="80" width="10" height="80" as="geometry" />
        </mxCell>
        <mxCell id="NdFDXdxjGD2_85TAVoyD-6" value="" style="html=1;points=[[0,0,0,0,5],[0,1,0,0,-5],[1,0,0,0,5],[1,1,0,0,-5]];perimeter=orthogonalPerimeter;outlineConnect=0;targetShapes=umlLifeline;portConstraint=eastwest;newEdgeStyle={&quot;curved&quot;:0,&quot;rounded&quot;:0};" vertex="1" parent="NdFDXdxjGD2_85TAVoyD-4">
          <mxGeometry x="45" y="190" width="10" height="110" as="geometry" />
        </mxCell>
        <mxCell id="NdFDXdxjGD2_85TAVoyD-8" value="Back End" style="shape=umlLifeline;perimeter=lifelinePerimeter;whiteSpace=wrap;html=1;container=1;dropTarget=0;collapsible=0;recursiveResize=0;outlineConnect=0;portConstraint=eastwest;newEdgeStyle={&quot;curved&quot;:0,&quot;rounded&quot;:0};" vertex="1" parent="1">
          <mxGeometry x="860" y="390" width="100" height="330" as="geometry" />
        </mxCell>
        <mxCell id="NdFDXdxjGD2_85TAVoyD-9" style="edgeStyle=orthogonalEdgeStyle;rounded=0;orthogonalLoop=1;jettySize=auto;html=1;curved=0;exitX=0;exitY=0;exitDx=0;exitDy=5;exitPerimeter=0;" edge="1" parent="NdFDXdxjGD2_85TAVoyD-8" source="NdFDXdxjGD2_85TAVoyD-10">
          <mxGeometry relative="1" as="geometry">
            <mxPoint x="45.333333333333485" y="204.66666666666674" as="targetPoint" />
          </mxGeometry>
        </mxCell>
        <mxCell id="NdFDXdxjGD2_85TAVoyD-10" value="" style="html=1;points=[[0,0,0,0,5],[0,1,0,0,-5],[1,0,0,0,5],[1,1,0,0,-5]];perimeter=orthogonalPerimeter;outlineConnect=0;targetShapes=umlLifeline;portConstraint=eastwest;newEdgeStyle={&quot;curved&quot;:0,&quot;rounded&quot;:0};" vertex="1" parent="NdFDXdxjGD2_85TAVoyD-8">
          <mxGeometry x="45" y="200" width="10" height="80" as="geometry" />
        </mxCell>
        <mxCell id="NdFDXdxjGD2_85TAVoyD-11" value="" style="html=1;points=[[0,0,0,0,5],[0,1,0,0,-5],[1,0,0,0,5],[1,1,0,0,-5]];perimeter=orthogonalPerimeter;outlineConnect=0;targetShapes=umlLifeline;portConstraint=eastwest;newEdgeStyle={&quot;curved&quot;:0,&quot;rounded&quot;:0};" vertex="1" parent="NdFDXdxjGD2_85TAVoyD-8">
          <mxGeometry x="55" y="220" width="10" height="40" as="geometry" />
        </mxCell>
        <mxCell id="NdFDXdxjGD2_85TAVoyD-12" value="5. Verifica a senha" style="html=1;align=left;spacingLeft=2;endArrow=block;rounded=0;edgeStyle=orthogonalEdgeStyle;curved=0;rounded=0;" edge="1" parent="NdFDXdxjGD2_85TAVoyD-8" target="NdFDXdxjGD2_85TAVoyD-11">
          <mxGeometry relative="1" as="geometry">
            <mxPoint x="60" y="210" as="sourcePoint" />
            <Array as="points">
              <mxPoint x="90" y="230" />
            </Array>
          </mxGeometry>
        </mxCell>
        <mxCell id="NdFDXdxjGD2_85TAVoyD-15" value="1. Usuário clica no botão de excluir conta" style="html=1;verticalAlign=bottom;endArrow=block;curved=0;rounded=0;entryX=0;entryY=0;entryDx=0;entryDy=5;entryPerimeter=0;" edge="1" parent="1" source="NdFDXdxjGD2_85TAVoyD-2" target="NdFDXdxjGD2_85TAVoyD-5">
          <mxGeometry relative="1" as="geometry">
            <mxPoint x="435" y="475" as="sourcePoint" />
            <mxPoint x="660" y="475" as="targetPoint" />
          </mxGeometry>
        </mxCell>
        <mxCell id="NdFDXdxjGD2_85TAVoyD-16" value="2. Solicita a senha do usuário" style="html=1;verticalAlign=bottom;endArrow=open;dashed=1;endSize=8;curved=0;rounded=0;exitX=0;exitY=1;exitDx=0;exitDy=-5;exitPerimeter=0;" edge="1" parent="1" source="NdFDXdxjGD2_85TAVoyD-5" target="NdFDXdxjGD2_85TAVoyD-2">
          <mxGeometry relative="1" as="geometry">
            <mxPoint x="420" y="545" as="targetPoint" />
            <mxPoint x="660" y="545" as="sourcePoint" />
          </mxGeometry>
        </mxCell>
        <mxCell id="NdFDXdxjGD2_85TAVoyD-17" value="3. Insere senha" style="html=1;verticalAlign=bottom;endArrow=block;curved=0;rounded=0;entryX=0;entryY=0;entryDx=0;entryDy=5;entryPerimeter=0;" edge="1" parent="1" source="NdFDXdxjGD2_85TAVoyD-2" target="NdFDXdxjGD2_85TAVoyD-6">
          <mxGeometry relative="1" as="geometry">
            <mxPoint x="440" y="585" as="sourcePoint" />
          </mxGeometry>
        </mxCell>
        <mxCell id="NdFDXdxjGD2_85TAVoyD-18" value="7. Exibe mensagem de &quot;Senha Inválida&quot;" style="html=1;verticalAlign=bottom;endArrow=open;dashed=1;endSize=8;curved=0;rounded=0;exitX=0;exitY=1;exitDx=0;exitDy=-5;exitPerimeter=0;" edge="1" parent="1" source="NdFDXdxjGD2_85TAVoyD-6" target="NdFDXdxjGD2_85TAVoyD-3">
          <mxGeometry relative="1" as="geometry">
            <mxPoint x="745" y="655" as="targetPoint" />
            <mxPoint x="660" y="655" as="sourcePoint" />
          </mxGeometry>
        </mxCell>
        <mxCell id="NdFDXdxjGD2_85TAVoyD-19" value="4. Envia a senha" style="html=1;verticalAlign=bottom;endArrow=block;curved=0;rounded=0;entryX=0.5;entryY=0.071;entryDx=0;entryDy=0;entryPerimeter=0;" edge="1" parent="1" source="NdFDXdxjGD2_85TAVoyD-6" target="NdFDXdxjGD2_85TAVoyD-10">
          <mxGeometry relative="1" as="geometry">
            <mxPoint x="990" y="625" as="sourcePoint" />
            <mxPoint x="900" y="595" as="targetPoint" />
          </mxGeometry>
        </mxCell>
        <mxCell id="NdFDXdxjGD2_85TAVoyD-20" value="6. Retorna &quot;Senha Inválida&quot;" style="html=1;verticalAlign=bottom;endArrow=open;dashed=1;endSize=8;curved=0;rounded=0;exitX=0.5;exitY=0.929;exitDx=0;exitDy=0;exitPerimeter=0;" edge="1" parent="1" source="NdFDXdxjGD2_85TAVoyD-10" target="NdFDXdxjGD2_85TAVoyD-4">
          <mxGeometry relative="1" as="geometry">
            <mxPoint x="990" y="695" as="targetPoint" />
            <mxPoint x="900" y="655" as="sourcePoint" />
          </mxGeometry>
        </mxCell>
        <mxCell id="NdFDXdxjGD2_85TAVoyD-22" value="Usuário e adm" style="text;strokeColor=none;fillColor=none;spacingLeft=4;spacingRight=4;overflow=hidden;rotatable=0;points=[[0,0.5],[1,0.5]];portConstraint=eastwest;fontSize=12;whiteSpace=wrap;html=1;" vertex="1" parent="1">
          <mxGeometry x="380" y="360" width="100" height="30" as="geometry" />
        </mxCell>
        <mxCell id="NdFDXdxjGD2_85TAVoyD-23" value="Fluxo Alternativo: Exclusão de Perfil&lt;div&gt;caso de &quot;Senha Inválida&quot;&lt;/div&gt;" style="text;strokeColor=none;fillColor=none;spacingLeft=4;spacingRight=4;overflow=hidden;rotatable=0;points=[[0,0.5],[1,0.5]];portConstraint=eastwest;fontSize=24;whiteSpace=wrap;html=1;fontStyle=1;align=center;" vertex="1" parent="1">
          <mxGeometry x="480" y="270" width="467.5" height="70" as="geometry" />
        </mxCell>
        <mxCell id="NdFDXdxjGD2_85TAVoyD-24" value="Obs: Usuário já logado" style="text;strokeColor=none;fillColor=none;spacingLeft=4;spacingRight=4;overflow=hidden;rotatable=0;points=[[0,0.5],[1,0.5]];portConstraint=eastwest;fontSize=24;whiteSpace=wrap;html=1;fontStyle=0;align=center;" vertex="1" parent="1">
          <mxGeometry x="580" y="770" width="260" height="50" as="geometry" />
        </mxCell>
      </root>
    </mxGraphModel>
  </diagram>
</mxfile>
